<svg id="vector" xmlns="http://www.w3.org/2000/svg" width="24" height="24" viewBox="0 0 24 24"> <path fill="#2D3253" d="M2,2C2,0.8954 2.8954,0 4,0H20C21.1046,0 22,0.8954 22,2V10.7084C23.2447,12.1186 24,13.9711 24,16C24,20.4183 20.4183,24 16,24C12.2723,24 9.1401,21.4505 8.252,18H8V22C8,23.1046 7.1046,24 6,24H4C2.8954,24 2,23.1046 2,22V2Z" id="path_0" /> <path fill="#F0F2FE" d="M20,2H4V16H8C8,11.5817 11.5817,8 16,8C17.4571,8 18.8233,8.3896 20,9.0703V2Z" id="path_1" /> <path fill="#4D65F8" d="M4,2H6V22H4V2Z" id="path_2" /> <path fill="#000000" d="M10,4H8V6H10V8H8V10H10V10.7084C10.2212,10.4578 10.4578,10.2212 10.7084,10H10V8H12V9.0703C12.619,8.7122 13.2905,8.4347 14,8.252V8H16C16.6906,8 17.3608,8.0875 18,8.252V8H16V6H18V4H16V6H14V4H12V6H10V4ZM12,6H14V8H12V6Z" fill-rule="evenodd" id="path_3" /> <path fill="#000000" d="M9.0703,12C8.7122,12.619 8.4347,13.2905 8.252,14H8V12H9.0703Z" id="path_4" /> <path fill="#FFC107FF" d="M16,16m-6,0a6,6 0,1 1,12 0a6,6 0,1 1,-12 0" id="path_5" /> <path fill="#2D3253" d="M16,12C16.5523,12 17,12.4477 17,13V16L18.6,17.2C19.0418,17.5314 19.1314,18.1582 18.8,18.6C18.4686,19.0418 17.8418,19.1314 17.4,18.8L15.4,17.3C15.1482,17.1111 15,16.8148 15,16.5V13C15,12.4477 15.4477,12 16,12Z" fill-rule="evenodd" id="path_6" /></svg>