<svg id="vector" xmlns="http://www.w3.org/2000/svg" width="24" height="24" viewBox="0 0 24 24"><defs><linearGradient gradientUnits="userSpaceOnUse" y1="12" x1="19" y2="12" x2="5" id="gradient_0"><stop offset="0" stop-color="#FFC107FF"/><stop offset="0.508929" stop-color="#FFC1074C"/><stop offset="1" stop-color="#FFC10700"/></linearGradient></defs><path fill="#ffffff" d="M2,3C0.8954,3 0,3.8954 0,5V13C0,14.1046 0.8954,15 2,15H2.2C3.1266,19.5645 7.1621,23 12,23C17.5228,23 22,18.5228 22,13C22,7.4771 17.5229,3 12,3H2Z" fill-opacity="0.3" id="path_0"/><path fill="#59361B" d="M2,2C0.8954,2 0,2.8954 0,4V12C0,13.1046 0.8954,14 2,14H2.2C3.1266,18.5645 7.1621,22 12,22C17.5228,22 22,17.5228 22,12C22,6.4771 17.5229,2 12,2H2Z" id="path_1"/><path fill="#FFC107" d="M12,20C14.1217,20 16.1566,19.1571 17.6569,17.6569C19.1571,16.1566 20,14.1217 20,12C20,9.8783 19.1571,7.8434 17.6569,6.3432C16.1566,4.8429 14.1217,4 12,4L12,5L13.75,10L19,12L13.75,14L12,19V20ZM15,8V9H16L17,7L15,8ZM15,16V15H16L17,17L15,16Z" fill-rule="evenodd" id="path_2"/><path fill="#FFC107" d="M19,12L13.75,14L12,19V12H19Z" stroke-opacity="0.5" fill-rule="evenodd" fill-opacity="0.5" id="path_3"/><path fill="url(#gradient_0)" d="M5,12L10.25,10L12,5V12H5Z" fill-rule="evenodd" id="path_4"/><path fill="#FFC107" d="M2,12V4H4.5L6.5,9.3333L8.5,4H11V12H9V8L7.5,12H5.5L4,8V12H2Z" id="path_5"/></svg>