<svg id="vector" xmlns="http://www.w3.org/2000/svg" width="24" height="24" viewBox="0 0 24 24"><defs><linearGradient gradientUnits="userSpaceOnUse" y1="5" x1="11" y2="16" x2="19" id="gradient_0"><stop offset="0" stop-color="#EBEEEFFF"/><stop offset="1" stop-color="#2C7AF6FF"/></linearGradient><linearGradient gradientUnits="userSpaceOnUse" y1="8" x1="5.5" y2="19" x2="15.5" id="gradient_1"><stop offset="0" stop-color="#5A8DDDFF"/><stop offset="1" stop-color="#1D73FAFF"/></linearGradient><linearGradient gradientUnits="userSpaceOnUse" y1="8" x1="6.81866" y2="8" x2="14.1457" id="gradient_2"><stop offset="0" stop-color="#EDEDEDFF"/><stop offset="1" stop-color="#EDEDEDC1"/></linearGradient></defs><path fill="#404040" d="M23.5138,15.6717C23.8305,16.1322 24,16.678 24,17.237C24,18.763 22.763,20 21.237,20H2.7643C1.2376,20 0,18.7624 0,17.2357C0,16.6802 0.1674,16.1376 0.4804,15.6785L7.5659,5.2864C8.1147,4.4816 9.0258,4 10,4C10.9742,4 11.8853,4.4816 12.4341,5.2864L14.0923,7.7185C14.6128,7.2617 15.2883,7 16,7C16.9716,7 17.8809,7.4783 18.4313,8.279L23.5138,15.6717Z" fill-rule="evenodd" id="path_0"/><path fill="url(#gradient_0)" d="M10,18L15.2393,9.4266C15.4012,9.1616 15.6894,9 16,9C16.313,9 16.6059,9.1541 16.7833,9.412L21.8657,16.8047C21.9532,16.9319 22,17.0826 22,17.237C22,17.6584 21.6584,18 21.237,18H10Z" id="path_1"/><path fill="url(#gradient_1)" d="M2.7643,18C2.3422,18 2,17.6578 2,17.2357C2,17.0822 2.0463,16.9321 2.1328,16.8052L9.2183,6.4131C9.3946,6.1546 9.6872,6 10,6C10.3128,6 10.6054,6.1546 10.7817,6.4131L17.8672,16.8052C17.9537,16.9321 18,17.0822 18,17.2357C18,17.6578 17.6578,18 17.2357,18H2.7643Z" id="path_2"/><path fill="url(#gradient_2)" d="M13.6147,10.5682L10.7817,6.4131C10.6054,6.1546 10.3128,6 10,6C9.6872,6 9.3946,6.1546 9.2183,6.4131L6.8187,9.9326L7.7105,11.4934C7.8895,11.8067 8.2227,12 8.5835,12C8.8502,12 9.106,11.8941 9.2945,11.7055L10.8425,10.1575C10.9434,10.0566 11.0801,10 11.2227,10C11.3967,10 11.5595,10.0847 11.6722,10.2172C11.947,10.5402 12.5043,11.0991 13,11C13.2293,10.9541 13.4437,10.7678 13.6147,10.5682Z" id="path_3"/></svg>