<svg id="vector" xmlns="http://www.w3.org/2000/svg" width="24" height="24" viewBox="0 0 24 24"><defs><linearGradient gradientUnits="userSpaceOnUse" y1="3" x1="12" y2="21" x2="12" id="gradient_0"><stop offset="0" stop-color="#0446AFFF"/><stop offset="1" stop-color="#1D73FAFF"/></linearGradient><linearGradient gradientUnits="userSpaceOnUse" y1="1" x1="12" y2="21" x2="12" id="gradient_1"><stop offset="0" stop-color="#FFFFFF7F"/><stop offset="1" stop-color="#FFFFFF00"/></linearGradient></defs><path fill="#2D3C53" d="M1,12C1,18.0751 5.9249,23 12,23C18.0751,23 23,18.0751 23,12C23,5.9249 18.0751,1 12,1C5.9249,1 1,5.9249 1,12Z" id="path_0"/><path fill="url(#gradient_0)" d="M3,12C3,16.9706 7.0294,21 12,21C16.9706,21 21,16.9706 21,12C21,7.0294 16.9706,3 12,3C7.0294,3 3,7.0294 3,12Z" id="path_1"/><path fill="url(#gradient_1)" d="M20.9451,13H17.7664C16.0229,14.4508 13.7684,15 12,15C10.2316,15 7.9771,14.4508 6.2336,13H3.0549C3.5524,17.5 7.3675,21 12,21C16.6326,21 20.4476,17.5 20.9451,13ZM12,17C13.8379,17 16.2213,16.5038 18.2653,15.1252C17.1172,17.4225 14.7428,19 12,19C9.2572,19 6.8828,17.4225 5.7347,15.1252C7.7787,16.5038 10.1621,17 12,17Z" fill-rule="evenodd" id="path_2"/><path fill="#FFC107" d="M3.0549,13C3.0186,12.6717 3,12.338 3,12C3,7.0294 7.0294,3 12,3C16.9706,3 21,7.0294 21,12C21,12.338 20.9814,12.6717 20.9451,13H3.0549ZM12,7C13.8379,7 16.2213,7.4962 18.2653,8.8748C17.1172,6.5775 14.7428,5 12,5C9.2572,5 6.8828,6.5775 5.7347,8.8748C7.7787,7.4962 10.1621,7 12,7ZM12,9C10.2316,9 7.9771,9.5492 6.2336,11H17.7664C16.0229,9.5492 13.7684,9 12,9Z" fill-rule="evenodd" id="path_3"/></svg>