<svg id="vector" xmlns="http://www.w3.org/2000/svg" width="24" height="24" viewBox="0 0 24 24"><defs><radialGradient gradientUnits="userSpaceOnUse" r="10.2591" cx="5" cy="8.5" id="gradient_0"><stop offset="0" stop-color="#FFDF80FF"/><stop offset="1" stop-color="#FFC10700"/></radialGradient><linearGradient gradientUnits="userSpaceOnUse" y1="12" x1="8" y2="16" x2="12" id="gradient_1"><stop offset="0" stop-color="#000000FF"/><stop offset="1" stop-color="#00000000"/></linearGradient></defs><path fill="#393E46" d="M12,3C5.9249,3 1,7.9249 1,14V17C1,18.1046 1.8954,19 3,19H6.8027C7.8401,20.7934 9.7792,22 12,22C14.2208,22 16.1599,20.7934 17.1973,19H21C22.1046,19 23,18.1046 23,17V14C23,7.9249 18.0751,3 12,3Z" fill-rule="evenodd" id="path_0"/><path fill="#FF8828" d="M8.126,17H3V14C3,9.0294 7.0294,5 12,5C16.9706,5 21,9.0294 21,14V17H15.874C15.4299,18.7252 13.8638,20 12,20C10.1362,20 8.5701,18.7252 8.126,17Z" id="path_1"/><path fill="url(#gradient_0)" d="M12,9C9.2386,9 7,11.2386 7,14V17H3V14C3,9.0294 7.0294,5 12,5C16.9706,5 21,9.0294 21,14V17H17V14C17,11.2386 14.7614,9 12,9Z" fill-rule="evenodd" id="path_2"/><path fill="#000000" d="M16,16C16,18.2091 14.2091,20 12,20C9.7909,20 8,18.2091 8,16C8,13.7909 9.7909,12 12,12C14.2091,12 16,13.7909 16,16Z" stroke-opacity="0.1" fill-opacity="0.1" id="path_3"/><path fill="url(#gradient_1)" d="M6.5858,10.5858C7.3668,9.8047 8.6332,9.8047 9.4142,10.5858L11.833,13.0045C11.8883,13.0015 11.944,12.9999 12,12.9999C13.6568,12.9999 15,14.3431 15,15.9999C15,17.6568 13.6568,18.9999 12,18.9999C10.3431,18.9999 9,17.6568 9,15.9999C9,15.944 9.0015,15.8883 9.0046,15.833L6.5858,13.4142C5.8047,12.6331 5.8047,11.3668 6.5858,10.5858Z" fill-opacity="0.2" fill-rule="evenodd" id="path_4"/><path fill="#ffffff" d="M8.7071,11.2929C8.3166,10.9023 7.6834,10.9023 7.2929,11.2929C6.9024,11.6834 6.9024,12.3166 7.2929,12.7071L10.0677,15.4819C10.0235,15.6471 10,15.8208 10,15.9999C10,17.1045 10.8954,17.9999 12,17.9999C13.1045,17.9999 14,17.1045 14,15.9999C14,14.8954 13.1045,13.9999 12,13.9999C11.8208,13.9999 11.6472,14.0235 11.4819,14.0677L8.7071,11.2929Z" fill-rule="evenodd" id="path_5"/><path fill="#393E46" d="M11,5V6C11,6.5523 11.4477,7 12,7C12.5523,7 13,6.5523 13,6V5H11Z" id="path_6"/><path fill="#393E46" d="M17.2929,7.2929L18,6.5858L19.4142,8L18.7071,8.7071C18.3166,9.0976 17.6834,9.0976 17.2929,8.7071C16.9024,8.3166 16.9024,7.6834 17.2929,7.2929Z" id="path_7"/><path fill="#393E46" d="M5.2929,8.7071L4.5858,8L6,6.5858L6.7071,7.2929C7.0976,7.6834 7.0976,8.3166 6.7071,8.7071C6.3166,9.0976 5.6834,9.0976 5.2929,8.7071Z" id="path_8"/><path fill="#393E46" d="M4,15H3V13H4C4.5523,13 5,13.4477 5,14C5,14.5523 4.5523,15 4,15Z" id="path_9"/><path fill="#393E46" d="M19,14C19,13.4477 19.4477,13 20,13H21V15H20C19.4477,15 19,14.5523 19,14Z" id="path_10"/></svg>