<svg id="vector" xmlns="http://www.w3.org/2000/svg" width="24" height="24" viewBox="0 0 24 24"><path fill="#ffffff" d="M0,13V15C0,16.3538 0.8967,17.4981 2.1285,17.8715C2.5019,19.1033 3.6462,20 5,20H21C22.6569,20 24,18.6569 24,17V13H0Z" fill-opacity="0.3" id="path_0"/><path fill="#59361B" d="M2.1285,7.1285C2.5019,5.8967 3.6462,5 5,5H21C22.6569,5 24,6.3432 24,8V16C24,17.6569 22.6569,19 21,19H5C3.6462,19 2.5019,18.1033 2.1285,16.8715C0.8967,16.4981 0,15.3538 0,14V10C0,8.6462 0.8967,7.5019 2.1285,7.1285Z" fill-rule="evenodd" id="path_1"/><path fill="#78CC5C" d="M8.8918,7H5C4.4477,7 4,7.4477 4,8V9H3C2.4477,9 2,9.4477 2,10V14C2,14.5523 2.4477,15 3,15H4V16C4,16.5523 4.4477,17 5,17H9.3332C9.3332,16.8913 9.3422,16.7814 9.3605,16.6712L9.6391,15H9C8.3571,15 7.7534,14.691 7.3775,14.1694C7.0016,13.6479 6.8993,12.9774 7.1026,12.3675L8.8918,7Z" id="path_2"/><path fill="#78CC5C" d="M13.6772,17H21C21.5523,17 22,16.5523 22,16V8C22,7.4477 21.5523,7 21,7H16C16,7.2367 15.958,7.4745 15.8727,7.7023L15.3729,9.035C15.9471,9.1439 16.4524,9.501 16.7444,10.0217C17.0983,10.6527 17.0838,11.4256 16.7066,12.0429L13.6772,17Z" id="path_3"/><path fill="#FFC107" d="M11,7L9,13H12L11.3333,17L15,11H12.5L14,7H11Z" id="path_4"/></svg>