<svg id="vector" xmlns="http://www.w3.org/2000/svg" width="24" height="24" viewBox="0 0 24 24"><path fill="#ffffff" d="M4,3V23H6V17H20L17,10L20,3H4Z" fill-opacity="0.3" id="path_0"/><path fill="#59361B" d="M20,2L17,9L20,16H6V22H4V2H20Z" fill-rule="evenodd" id="path_1"/><path fill="#FFC107" d="M6,14H16.9669L14.8241,9L16.9669,4H6V14Z" fill-rule="evenodd" id="path_2"/><path fill="#ffffff" d="M10,16C10,19.866 13.134,23 17,23C20.866,23 24,19.866 24,16C24,15.6629 23.9762,15.3314 23.9301,15.007L14,16H10Z" fill-opacity="0.3" id="path_3"/><path fill="#000000" d="M8.0549,16H20L17,9L18.2489,6.0859C17.8407,6.0293 17.4238,6 17,6C12.0294,6 8,10.0294 8,15C8,15.338 8.0186,15.6717 8.0549,16Z" stroke-opacity="0.4" fill-opacity="0.4" id="path_4"/><path fill="#FFC107" d="M22,15C22,17.7614 19.7614,20 17,20C14.2386,20 12,17.7614 12,15C12,12.2386 14.2386,10 17,10C19.7614,10 22,12.2386 22,15Z" id="path_5"/><path fill="#59361B" d="M17,20C19.7614,20 22,17.7614 22,15C22,12.2386 19.7614,10 17,10C14.2386,10 12,12.2386 12,15C12,17.7614 14.2386,20 17,20ZM17,22C20.866,22 24,18.866 24,15C24,11.134 20.866,8 17,8C13.134,8 10,11.134 10,15C10,18.866 13.134,22 17,22Z" fill-rule="evenodd" id="path_6"/><path fill="#59361B" d="M17,12C17.5523,12 18,12.4477 18,13V14.382L19.4472,15.1056C19.9412,15.3526 20.1414,15.9532 19.8944,16.4472C19.6474,16.9412 19.0468,17.1414 18.5528,16.8944L16.5528,15.8944C16.214,15.725 16,15.3788 16,15V13C16,12.4477 16.4477,12 17,12Z" fill-rule="evenodd" id="path_7"/></svg>