<svg id="vector" xmlns="http://www.w3.org/2000/svg" width="24" height="24" viewBox="0 0 24 24"><defs><linearGradient gradientUnits="userSpaceOnUse" y1="12" x1="12" y2="8.5" x2="5.93782" id="gradient_0"><stop offset="0" stop-color="#FFC107FF"/><stop offset="0.567708" stop-color="#FFC1074C"/><stop offset="1" stop-color="#FFC10700"/></linearGradient></defs><path fill="#ffffff" d="M1,3C0.4477,3 0,3.4477 0,4V14C0,14.5523 0.4477,15 1,15H2.2C3.1266,19.5645 7.1621,23 12,23C17.5228,23 22,18.5228 22,13C22,7.4771 17.5229,3 12,3C10.753,3 9.5594,3.2282 8.4586,3.6452C7.7326,3.2345 6.8937,3 6,3H1ZM5.999,5H2V13C2,9.7288 3.5707,6.8245 5.999,5Z" fill-opacity="0.3" fill-rule="evenodd" id="path_0"/><path fill="#59361B" d="M1,2C0.4477,2 0,2.4477 0,3V13C0,13.5523 0.4477,14 1,14H2.2C3.1266,18.5645 7.1621,22 12,22C17.5228,22 22,17.5228 22,12C22,6.4771 17.5229,2 12,2C10.753,2 9.5594,2.2282 8.4586,2.6452C7.7326,2.2345 6.8937,2 6,2H1ZM5.999,4H2V12C2,8.7288 3.5707,5.8245 5.999,4Z" fill-rule="evenodd" id="path_1"/><path fill="#FFC107" d="M8.7708,19.3193C7.5233,18.7689 6.4373,17.9089 5.6157,16.8208L9.2544,14.0732L8.5,18.0622L12.5155,14.607L18.0622,15.5L14.5155,11.1429L15.5,5.9378L11.992,8.9562L11.979,4C13.3425,3.9965 14.6842,4.3414 15.8768,5.0021C17.0695,5.6629 18.0735,6.6174 18.7935,7.7752C19.5135,8.9331 19.9257,10.2557 19.9909,11.6176C20.056,12.9794 19.7721,14.3354 19.1659,15.5567C18.5597,16.7779 17.6515,17.824 16.5274,18.5956C15.4033,19.3673 14.1007,19.8388 12.7431,19.9654C11.3856,20.0921 10.0182,19.8697 8.7708,19.3193ZM16.5981,10.0359L16.0981,10.9019L16.9641,11.4019L18.8301,10.1699L16.5981,10.0359ZM12.5981,16.9641L13.0981,16.0981L13.9641,16.5981L13.8301,18.8301L12.5981,16.9641Z" fill-rule="evenodd" id="path_2"/><path fill="#FFC107" d="M18.0622,15.5L12.5155,14.6071L8.5,18.0622L12,12L18.0622,15.5Z" stroke-opacity="0.5" fill-rule="evenodd" fill-opacity="0.5" id="path_3"/><path fill="url(#gradient_0)" d="M5.9378,8.5L11.4845,9.393L15.5,5.9378L12,12L5.9378,8.5Z" fill-rule="evenodd" id="path_4"/><path fill="#FFBE07" d="M2,4V12H4V10H5L6.5,12H9L7.2841,9.7121C8.2985,9.2309 9,8.1974 9,7C9,5.3432 7.6568,4 6,4H2ZM4,8H6C6.5523,8 7,7.5523 7,7C7,6.4477 6.5523,6 6,6H4V8Z" fill-rule="evenodd" id="path_5"/></svg>