<svg id="vector" xmlns="http://www.w3.org/2000/svg" width="24" height="24" viewBox="0 0 24 24"><path fill="#2D3253" d="M4,0C2.8954,0 2,0.8954 2,2V22C2,23.1046 2.8954,24 4,24H6C7.1046,24 8,23.1046 8,22V18H20C21.1046,18 22,17.1046 22,16V2C22,0.8954 21.1046,0 20,0H4Z" id="path_0"/><path fill="#F0F2FE" d="M4,2H20V16H4V2Z" id="path_1"/><path fill="#4D65F8" d="M4,2H6V22H4V2Z" id="path_2"/><path fill="#000000" d="M8,4H10V6H8V4Z" id="path_3"/><path fill="#000000" d="M12,6H10V8H8V10H10V12H8V14H10V12H12V14H14V12H16V14H18V12H16V10H18V8H16V6H18V4H16V6H14V4H12V6ZM12,8V6H14V8H12ZM12,10H10V8H12V10ZM14,10V8H16V10H14ZM14,10H12V12H14V10Z" fill-rule="evenodd" id="path_4"/></svg>