<svg id="vector" xmlns="http://www.w3.org/2000/svg" width="24" height="24" viewBox="0 0 24 24"><path fill="#ffffff" d="M12,13m-10,0a10,10 0,1 1,20 0a10,10 0,1 1,-20 0" fill-opacity="0.3" id="path_0"/><path fill="#59361B" d="M12,12m-10,0a10,10 0,1 1,20 0a10,10 0,1 1,-20 0" id="path_1"/><path fill="#FFC107" d="M12,12m-8,0a8,8 0,1 1,16 0a8,8 0,1 1,-16 0" id="path_2"/><path fill="#59361B" d="M12,6C12.5523,6 13,6.4477 13,7V11.5858L15.7071,14.2929C16.0976,14.6834 16.0976,15.3166 15.7071,15.7071C15.3166,16.0976 14.6834,16.0976 14.2929,15.7071L11,12.4142V7C11,6.4477 11.4477,6 12,6Z" fill-rule="evenodd" id="path_3"/></svg>