<svg id="vector" xmlns="http://www.w3.org/2000/svg" width="24" height="24" viewBox="0 0 24 24"><path fill="#ffffff" d="M0,13V15C0,16.3538 0.8967,17.4981 2.1285,17.8715C2.5019,19.1033 3.6462,20 5,20H21C22.6569,20 24,18.6569 24,17V13H0Z" fill-opacity="0.3" id="path_0"/><path fill="#59361B" d="M2.1285,7.1285C2.5019,5.8967 3.6462,5 5,5H21C22.6569,5 24,6.3432 24,8V16C24,17.6569 22.6569,19 21,19H5C3.6462,19 2.5019,18.1033 2.1285,16.8715C0.8967,16.4981 0,15.3538 0,14V10C0,8.6462 0.8967,7.5019 2.1285,7.1285Z" fill-rule="evenodd" id="path_1"/><path fill="#FFC107" d="M5,7C4.4477,7 4,7.4477 4,8V9H3C2.4477,9 2,9.4477 2,10V14C2,14.5523 2.4477,15 3,15H4V16C4,16.5523 4.4477,17 5,17H21C21.5523,17 22,16.5523 22,16V8C22,7.4477 21.5523,7 21,7H5Z" fill-rule="evenodd" id="path_2"/><path fill="#59361B" d="M12.5,9L19.5,9A0.5,0.5 0,0 1,20 9.5L20,14.5A0.5,0.5 0,0 1,19.5 15L12.5,15A0.5,0.5 0,0 1,12 14.5L12,9.5A0.5,0.5 0,0 1,12.5 9z" id="path_3"/></svg>