<svg id="vector" xmlns="http://www.w3.org/2000/svg" width="24" height="24" viewBox="0 0 24 24"><path fill="#ffffff" d="M1,9C1,7.8954 1.8954,7 3,7H21C22.1046,7 23,7.8954 23,9V17C23,18.1046 22.1046,19 21,19H3C1.8954,19 1,18.1046 1,17V9Z" fill-opacity="0.3" id="path_0"/><path fill="#FFC107" d="M1,8C1,6.8954 1.8954,6 3,6H21C22.1046,6 23,6.8954 23,8V16C23,17.1046 22.1046,18 21,18H3C1.8954,18 1,17.1046 1,16V8Z" id="path_1"/><path fill="#59361B" d="M19,8H21V16H3L3,8H5V12H7V8H9V12H11V8H13V12H15V8H17V12H19V8ZM1,8C1,6.8954 1.8954,6 3,6H21C22.1046,6 23,6.8954 23,8V16C23,17.1046 22.1046,18 21,18H3C1.8954,18 1,17.1046 1,16V8Z" fill-rule="evenodd" id="path_2"/><path fill="#ffffff" d="M7,12H5V13H7V12Z" fill-opacity="0.3" id="path_3"/><path fill="#ffffff" d="M11,12H9V13H11V12Z" fill-opacity="0.3" id="path_4"/><path fill="#ffffff" d="M13,12H15V13H13V12Z" fill-opacity="0.3" id="path_5"/><path fill="#ffffff" d="M19,12H17V13H19V12Z" fill-opacity="0.3" id="path_6"/></svg>